<svg xmlns="http://www.w3.org/2000/svg" viewBox="0 0 431.35 168.42"><defs><style>.cls-1{fill:none;}</style></defs><title>Asset 1</title><g id="Layer_2" data-name="Layer 2"><g id="Layer_1-2" data-name="Layer 1"><path class="cls-1" d="M317.14,99.83c0,.2,0,.41,0,.61A3,3,0,0,0,317.14,99.83Z"/><path class="cls-1" d="M131.9,147.24Z"/><path class="cls-1" d="M217,136.16l-57.23-3.07a22.5,22.5,0,0,1-2.7,10.78C177.59,141.68,196.84,139.21,217,136.16Z"/><path class="cls-1" d="M315.66,94.58c.12.3.55,1.16,0,0Z"/><path class="cls-1" d="M316.15,107.81a.14.14,0,0,1,0-.06h0Z"/><path class="cls-1" d="M317.13,99.66v.17C317.14,99.77,317.13,99.72,317.13,99.66Z"/><path class="cls-1" d="M316.17,107.75a2.48,2.48,0,0,0,.2-.61c-.07.21-.14.41-.2.61Z"/><path class="cls-1" d="M145.42,132.73v0a1.53,1.53,0,0,0-.14-.17Z"/><path class="cls-1" d="M131.47,147.43l.24-.1Z"/><path class="cls-1" d="M145.47,132.87v-.09l0,0,0,0a.65.65,0,0,1,0,.13Z"/><path class="cls-1" d="M145.28,132.53a.41.41,0,0,1-.05-.09h0v0l0,0Z"/><path class="cls-1" d="M145.49,132.85Z"/><path class="cls-1" d="M365.5,69.85h0Z"/><path class="cls-1" d="M397.41,99.74v0c0-.28-.09-.55-.15-.83-.16-.82-.36-1.64-.59-2.44s-.6-1.76-.9-2.64c-.14-.3-.27-.6-.42-.9A36.46,36.46,0,0,0,393,88.79c-.48-.74-1-1.45-1.5-2.16.49.69-.83-1-1-1.23q-1.56-1.83-3.29-3.51c-1.23-1.21-2.51-2.35-3.83-3.45l-1-.84,0,0-.1-.07c-.65-.45-1.27-.93-1.92-1.37a52.87,52.87,0,0,0-4.89-2.95c-.69-.36-1.39-.7-2.1-1L373,72l-1-.4a35.08,35.08,0,0,0-5.08-1.48l-1.3-.25h-.12l-.57,0c-.56,0-1.12-.09-1.68-.1a25.07,25.07,0,0,0-2.6,0l-.77.07-.13,0a32.59,32.59,0,0,0-4.13,1.09c-.23.08-.85.35-.83.33l-.33.15c-.6.3-1.18.61-1.75,1s-1.14.74-1.71,1.12l-.66.57a22.47,22.47,0,0,0-1.74,1.78l-.36.47,0,0c-.39.63-.75,1.26-1.12,1.9l-.11.19c-.08.22-.17.44-.24.67a10.24,10.24,0,0,1-.56,1.26c0,.11-.05.21-.07.31L346,81c0,.3-.1.8-.11.91,0,.39-.05.78-.07,1.17A40,40,0,0,0,346,88c-.06-.8.13.82.24,1.36.17.87.38,1.74.63,2.59s.51,1.7.82,2.53l.36.91.17.36a32.82,32.82,0,0,0,2.49,4.35c.27.4.55.79.84,1.18l0,0c.63.68,1.2,1.41,1.84,2.08a47.69,47.69,0,0,0,3.61,3.36l.23.2.75.56c.68.48,1.36.94,2.05,1.39,1.4.89,2.85,1.7,4.32,2.45.75.38,1.5.73,2.26,1.07a1.44,1.44,0,0,0,.2.09l.68.27a60.1,60.1,0,0,0,9.32,2.76c.91.19,1.84.36,2.77.52l1.19.18h.12c1.82.13,3.59.2,5.41.22l.7,0c.4-.09.81-.16,1.2-.26s.8-.15,1.21-.28a1.55,1.55,0,0,1,.27-.18c.3-.18.61-.32.91-.49s.82-.44,1.22-.7a1.92,1.92,0,0,1,.27-.3c.25-.24.52-.47.76-.71.51-.5.95-1,1.42-1.55-.95,1.06-.08.09.28-.46s.75-1.21,1.09-1.84c.18-.35.35-.71.53-1.07.2-.56.4-1.12.57-1.69s.38-1.4.53-2.11l.09-.51C397.24,103.91,397.42,100.17,397.41,99.74Z"/><path class="cls-1" d="M397.38,104.23c0-.08,0-.16.05-.23C397.68,102.69,397.41,103.89,397.38,104.23Z"/><path class="cls-1" d="M396.09,108.83c-.13.34-.24.67,0,0Z"/><path class="cls-1" d="M364.86,69.8l.56,0Z"/><path class="cls-1" d="M317.16,104.15c0-1,.12-2,.07-3,0-.24,0-.48-.05-.72a5.28,5.28,0,0,1-.05-.64h0c-.21-1-.41-2-.69-2.94-.23-.78-.51-1.53-.78-2.29h0c-.44-.93-.9-1.85-1.42-2.75s-1.1-1.74-1.67-2.61l-.18-.27h0c-.33-.4-.66-.8-1-1.19a36,36,0,0,0-4.87-4.61l-.43-.31-1.66-1.15c-.93-.62-1.89-1.21-2.86-1.77-2-1.19-4.16-2.26-6.31-3.25l-2-.91c-.94-.39-1.9-.77-2.85-1.14-4.79-1.87-9.65-3.57-14.5-5.28q-18.06-6.36-36.36-12,4.15,37.1,5.17,74.44,21.49-3.66,42.87-8a95.69,95.69,0,0,0,14-3.71q.68-.24,1.35-.51l.26-.12,1.31-.61c.94-.47,1.87-1,2.77-1.51s1.71-1.09,2.55-1.67l.16-.11.07-.06c.37-.35.78-.66,1.15-1,.9-.82,1.72-1.7,2.54-2.59l.2-.22c.29-.4.57-.8.83-1.21.54-.84,1-1.72,1.45-2.6a4.1,4.1,0,0,1,.21-.62c.12-.35.24-.7.35-1.06.16-.58.27-1.18.41-1.76l0-.13Z"/><path class="cls-1" d="M386.91,116.45h0C386.44,116.53,386.42,116.54,386.91,116.45Z"/><path d="M318,74C310,67,300.27,62.89,290.39,59.24c-23.9-8.82-48.22-16.58-72.74-23.53-3.63-1-8,1.26-8.87,5a7.35,7.35,0,0,0,5,8.87c3.59,1,7.18,2.07,10.76,3.12q4.74,40.51,5.74,81.34c-2.29.37-4.58.74-6.87,1.09l-3,.46c2.56-1.15,4.58-3.88,4.38-6.64L220.56,67.5c-.26-3.76-3.13-7.4-7.22-7.22-3.68.17-7.49,3.19-7.21,7.22l3.75,53.86-61.35-3.3c-.77-.28-1.56-.51-2.36-.72l1.31-3.33c.86-2.12,1.73-4.25,2.61-6.36,0-.09.28-.68.38-.9l.53-1.25c.45-1.06.91-2.11,1.37-3.16q5.43-12.45,11.54-24.58c1.69-3.36,1-8-2.59-9.86-3.27-1.74-8.06-1-9.87,2.58q-10.92,21.74-19.75,44.45c-1.73-.23-3.47-.45-5.2-.65a352.07,352.07,0,0,0-56.33-1.55c-13.36.6-26.69,1.76-40,3.17q40.48-34.09,79.55-69.84,13.41-12.29,26.64-24.75a7.26,7.26,0,0,0,0-10.2,7.36,7.36,0,0,0-10.2,0q-47,44.3-96.26,86.2Q16.06,109.09,2.05,120.68c-2.2,1.81-2.51,5.45-1.49,7.88s3.8,4.77,6.59,4.43c34.8-4.26,69.94-7.9,105-5.58,4.39.3,8.78.68,13.15,1.17q1.55.16,3.09.36l1.54.19.25,0a8.36,8.36,0,0,0,5.48,2.63l9.25.49.22.12,0,0v0h0a.41.41,0,0,0,.05.09,1.53,1.53,0,0,1,.14.17v0l0,0,0,0v.09h0l0,.08c0,.09,0,.2,0,.33s0,.46,0,.62c-.16.74-.43,1.45-.64,2.17l0,0c-.19.31-.33.66-.51,1-.35.64-.73,1.27-1.14,1.87l-.29.45c0,.07-.12.14-.21.25a26.17,26.17,0,0,1-1.84,2c-.51.5-1.08.95-1.6,1.44l0,0c-.22.16-.44.33-.67.48a37.2,37.2,0,0,1-4,2.43c-.67.34-1.34.67-2,1l-.61.28-.27.1c-1.61.6-3.22,1.19-4.87,1.68a85.72,85.72,0,0,1-9.48,2.21c-2.22.4-4.46.74-6.7,1l-.11,0-.3,0c-.64.09-1.29.17-1.94.24-1.3.16-2.59.3-3.89.43q-7.41.74-14.85.94-10.24.3-20.46-.42c3.73-3.43,7.34-7,10.8-10.72,2.28-2.47,2.62-6.67,0-9.07s-6.63-2.63-9.07,0c-3.75,4-7.66,7.94-11.74,11.65-2,1.81-4,3.58-6.1,5.31s-4.15,3.38-5.91,4.7c-2.66,2-4.33,5.63-2.3,8.77,1.7,2.64,5.92,4.47,8.78,2.31l1.58-1.23a8.7,8.7,0,0,0,4.71,1.88,219.4,219.4,0,0,0,57.35-1.32c10-1.53,20.66-4.24,29.06-10.06a6.3,6.3,0,0,0,5.81,3.08q68.69-7.1,136.51-20.65c10.29-2.06,21-4.44,29.52-10.9,8.32-6.31,14.2-15.66,13.63-26.42C331.1,90.54,325.76,80.71,318,74ZM131.71,147.33l-.24.1Zm.19-.09c.56-.25.29-.12,0,0Zm27.84-14.15L217,136.16c-20.13,3.05-39.38,5.52-59.93,7.71A22.5,22.5,0,0,0,159.74,133.09Zm-14.25-.24ZM315.66,94.58c.55,1.16.12.3,0,0Zm1.06,11.5c-.11.36-.23.71-.35,1.06a2.48,2.48,0,0,1-.2.61h0a.14.14,0,0,0,0,.06v0c-.45.88-.91,1.76-1.45,2.6-.26.41-.54.81-.83,1.21l-.2.22c-.82.89-1.64,1.77-2.54,2.59-.37.34-.78.65-1.15,1l-.07.06-.16.11c-.84.58-1.68,1.15-2.55,1.67s-1.83,1-2.77,1.51l-1.31.61-.26.12q-.67.27-1.35.51a95.69,95.69,0,0,1-14,3.71q-21.36,4.41-42.87,8-1-37.31-5.17-74.44,18.28,5.7,36.36,12c4.85,1.71,9.71,3.41,14.5,5.28.95.37,1.91.75,2.85,1.14l2,.91c2.15,1,4.27,2.06,6.31,3.25,1,.56,1.93,1.15,2.86,1.77l1.66,1.15.43.31a36,36,0,0,1,4.87,4.61c.34.39.67.79,1,1.19h0l.18.27c.57.87,1.15,1.72,1.67,2.61s1,1.82,1.42,2.75h0c.27.76.55,1.51.78,2.29.28,1,.48,2,.69,2.94h0v-.14c0,.06,0,.11,0,.17a3,3,0,0,1,0,.61c0,.24,0,.48.05.72,0,1-.05,2-.07,3v0l0,.13C317,104.9,316.88,105.5,316.72,106.08Z"/><path d="M316.16,107.76h0c.06-.2.13-.4.2-.61A4.1,4.1,0,0,0,316.16,107.76Z"/><path d="M317.18,100.44c0-.2,0-.41,0-.61v0A5.28,5.28,0,0,0,317.18,100.44Z"/><path d="M401.1,75.68a61.78,61.78,0,0,0-19.64-15.57c-8.85-4.35-19-6.37-28.66-3.44a33.63,33.63,0,0,0-7.44,3.3,6.15,6.15,0,0,0-6.1,2,36,36,0,0,0-7.89,23.5,41.52,41.52,0,0,0,7.19,22.42c10,14.19,26.85,21.61,43.8,23,8.57.69,17-2.28,22.45-9.07a31.14,31.14,0,0,0,7-22C411,90.61,406.92,82.66,401.1,75.68Zm-14.16,40.76h0C386.42,116.54,386.44,116.53,386.94,116.44Zm9.15-7.61c-.24.67-.13.34,0,0Zm.66-1.93c-.17.57-.37,1.13-.57,1.69-.18.36-.35.72-.53,1.07-.34.63-.7,1.24-1.09,1.84s-1.23,1.52-.28.46c-.47.52-.91,1.05-1.42,1.55-.24.24-.51.47-.76.71a1.92,1.92,0,0,0-.27.3c-.4.26-.86.49-1.22.7s-.61.31-.91.49a1.55,1.55,0,0,0-.27.18c-.41.13-.9.2-1.21.28s-.8.17-1.2.26l-.7,0c-1.82,0-3.59-.09-5.41-.22h-.12l-1.19-.18c-.93-.16-1.86-.33-2.77-.52a60.1,60.1,0,0,1-9.32-2.76l-.68-.27a1.44,1.44,0,0,1-.2-.09c-.76-.34-1.51-.69-2.26-1.07-1.47-.75-2.92-1.56-4.32-2.45-.69-.45-1.37-.91-2.05-1.39l-.75-.56-.23-.2a47.69,47.69,0,0,1-3.61-3.36c-.64-.67-1.21-1.4-1.84-2.08l0,0c-.29-.39-.57-.78-.84-1.18a32.82,32.82,0,0,1-2.49-4.35l-.17-.36-.36-.91c-.31-.83-.58-1.68-.82-2.53s-.46-1.72-.63-2.59c-.11-.54-.3-2.16-.24-1.36a40,40,0,0,1-.17-4.89c0-.39,0-.78.07-1.17,0-.11.07-.61.11-.91l.05-.33c0-.1,0-.2.07-.31a10.24,10.24,0,0,0,.56-1.26c.07-.23.16-.45.24-.67l.11-.19c.37-.64.73-1.27,1.12-1.9l0,0,.36-.47a22.47,22.47,0,0,1,1.74-1.78l.66-.57c.57-.38,1.12-.77,1.71-1.12s1.15-.65,1.75-1l.33-.15s.6-.25.83-.33a32.59,32.59,0,0,1,4.13-1.09l.13,0,.77-.07a25.07,25.07,0,0,1,2.6,0c.56,0,1.12.06,1.68.1l.56,0h.13l1.3.25a35.08,35.08,0,0,1,5.08,1.48l1,.4.3.15c.71.34,1.41.68,2.1,1a52.87,52.87,0,0,1,4.89,2.95c.65.44,1.27.92,1.92,1.37l.1.07,0,0,1,.84c1.32,1.1,2.6,2.24,3.83,3.45s2.25,2.29,3.29,3.51c.19.21,1.51,1.92,1,1.23.51.71,1,1.42,1.5,2.16a36.46,36.46,0,0,1,2.35,4.12c.15.3.28.6.42.9.3.88.64,1.74.9,2.64s.43,1.62.59,2.44c.06.28.11.55.15.83v0c0,.43-.17,4.17,0,4.54l-.09.51C397.13,105.5,397,106.2,396.75,106.9Zm.68-2.9c0,.07,0,.15-.05.23C397.41,103.89,397.68,102.69,397.43,104Z"/><path d="M365.42,69.85l-.56,0,.57,0Z"/><path d="M145.28,132.53l-.05-.06,0,0a1.32,1.32,0,0,0,.25.41.65.65,0,0,0,0-.13Z"/><path d="M430.58,31.75a234,234,0,0,1-10.43-27c-1-3.19-4.5-5.58-7.88-4.48-3.2,1-5.57,4.47-4.48,7.89C410,15,412.44,21.7,415.18,28.31a4.69,4.69,0,0,0-.54-1,84.27,84.27,0,0,1-5.21-8.59c-.78-1.48-1.49-3-2.19-4.52-.4-.89-.95-2.32-1.49-3.79-1.15-3.14-4.41-5.61-7.89-4.48-3.08,1-5.72,4.52-4.48,7.89a88.43,88.43,0,0,0,10.19,20c1.9,2.75,5.71,4.27,8.77,2.3,2.39-1.54,3.91-4.82,2.91-7.59q2,4.9,4.25,9.74c1.41,3.06,6.06,4.05,8.78,2.3C431.43,38.49,432.08,35,430.58,31.75Z"/></g></g></svg>